<svg xmlns="http://www.w3.org/2000/svg" xmlns:xlink="http://www.w3.org/1999/xlink" width="500" zoomAndPan="magnify" viewBox="0 0 375 374.999991" height="500" preserveAspectRatio="xMidYMid meet" version="1.0"><defs><g/><clipPath id="8a2a33b3e8"><path d="M 113.246094 70 L 287 70 L 287 215 L 113.246094 215 Z M 113.246094 70 " clip-rule="nonzero"/></clipPath><clipPath id="37f897cbf9"><path d="M 284 97 L 293.246094 97 L 293.246094 102 L 284 102 Z M 284 97 " clip-rule="nonzero"/></clipPath></defs><g clip-path="url(#8a2a33b3e8)"><path fill="#000000" d="M 285.949219 129.667969 C 284.097656 119.042969 287.753906 100.191406 273.058594 98.234375 C 250.382812 98.347656 227.683594 100.726562 205.074219 102.347656 C 209.308594 98.503906 207.390625 91.1875 202.417969 88.898438 C 194.503906 85.628906 184.980469 88.121094 177.757812 92.078125 C 174.925781 93.8125 172.316406 95.878906 169.929688 98.191406 C 170.152344 97.789062 170.355469 97.367188 170.578125 96.96875 C 173.410156 90.566406 178.917969 84.050781 178.960938 76.894531 C 177.601562 67.113281 168.324219 69.3125 162.863281 74.582031 C 149.039062 85.71875 149.59375 104.480469 148.992188 88.898438 C 148.210938 83.429688 148.011719 76.761719 143.375 73.003906 C 139.871094 70.3125 135.125 72.757812 133.316406 76.316406 C 131.980469 78.605469 131.445312 81.207031 131.242188 83.828125 C 129.035156 111.128906 125.089844 138.25 120.675781 165.261719 C 118.578125 177.84375 116.324219 190.402344 113.761719 202.898438 C 113.25 204.917969 116.414062 205.898438 116.996094 203.785156 C 124.867188 163.925781 131.152344 123.710938 134.632812 83.253906 C 134.878906 80.738281 135.769531 77.695312 137.84375 75.984375 C 146.652344 70.335938 146.40625 99.457031 145.601562 104.703125 C 145.804688 106.683594 143.707031 111.242188 146.136719 112.019531 C 147.007812 112.261719 147.96875 111.730469 148.191406 110.863281 C 151.800781 97.144531 156.304688 81.007812 169.820312 73.960938 C 171 73.382812 172.585938 73.046875 173.65625 73.648438 C 179.542969 77.449219 169.996094 89.675781 168.101562 94.476562 C 164.3125 101.636719 160.675781 108.839844 157.777344 116.398438 C 157.109375 118.152344 160.074219 119.421875 160.832031 117.6875 C 165.582031 106.859375 173.5 96.457031 185.003906 92.390625 C 190.691406 90.855469 200.859375 88.320312 203.78125 95.234375 C 204.492188 97.058594 203.867188 99.101562 202.375 100.324219 C 198.941406 103.171875 194.035156 102.769531 189.953125 104.238281 C 180.679688 106.550781 174.210938 113.664062 171.824219 122.753906 C 167.632812 133.828125 168.214844 147.921875 177.3125 156.414062 C 180.5 158.925781 184.625 160.191406 188.660156 160.371094 C 194.300781 161.058594 208.082031 154.457031 208.105469 164.148438 C 205.765625 173.285156 188.214844 175.199219 180.5 173.019531 C 178.492188 172.507812 176.621094 171.683594 174.925781 170.507812 C 174.035156 169.882812 172.742188 170.527344 172.472656 171.507812 C 169.484375 182.6875 167.097656 194.027344 164.355469 205.277344 C 163.753906 207.742188 163.152344 210.210938 162.484375 212.65625 C 161.902344 214.722656 165.136719 215.613281 165.714844 213.546875 C 168.703125 202.761719 170.933594 191.804688 173.566406 180.933594 C 175.972656 169.929688 173.921875 177.175781 186.476562 177.152344 C 195.730469 177.464844 211.828125 174.175781 211.359375 162.394531 C 211.046875 160.257812 209.976562 158.503906 208.394531 157.324219 C 232.230469 155.457031 256.535156 155.878906 280.105469 151.964844 C 289.160156 148.453125 286.417969 137.207031 285.949219 129.667969 Z M 142.390625 76.648438 C 142.546875 76.828125 142.4375 76.714844 142.390625 76.648438 Z M 272.859375 101.527344 C 272.679688 101.503906 272.769531 101.527344 272.859375 101.527344 Z M 194.101562 109.371094 C 194.078125 109.417969 194.078125 109.460938 194.101562 109.371094 Z M 176.488281 119.777344 C 176.53125 119.664062 176.507812 119.730469 176.488281 119.777344 Z M 179.496094 153.902344 C 179.472656 153.878906 179.472656 153.878906 179.496094 153.902344 Z M 192.453125 156.878906 C 180.65625 158.65625 174.121094 150.320312 172.808594 139.539062 C 172.003906 131.160156 175.238281 118.621094 181.304688 112.597656 C 183.421875 110.574219 186.074219 109.171875 188.796875 108.148438 C 190.265625 107.859375 192.140625 106.328125 190.824219 108.707031 C 189.484375 121.734375 191.851562 135.136719 192.851562 148.1875 C 193.144531 150.699219 193.386719 153.277344 195.328125 155.144531 C 195.707031 155.523438 196.132812 155.835938 196.578125 156.125 C 195.195312 156.324219 193.835938 156.65625 192.453125 156.878906 Z M 196.355469 149.589844 C 196.355469 149.65625 196.375 149.875 196.355469 149.589844 Z M 283.316406 141.40625 C 283.316406 144.386719 282.15625 147.71875 279.167969 148.789062 C 278.210938 149.164062 277.253906 149.386719 276.226562 149.542969 C 276.160156 149.542969 275.691406 149.609375 276.136719 149.566406 C 265.097656 150.632812 254.015625 151.410156 242.933594 152.078125 C 229.175781 152.765625 215.417969 153.746094 201.660156 154.300781 C 200.878906 154.277344 200.035156 154.054688 198.984375 153.632812 C 196.308594 152.589844 196.332031 149.5 196.0625 147.074219 C 194.90625 136.738281 194.148438 126.355469 193.765625 115.976562 C 193.589844 111.953125 193.054688 107.949219 197.378906 106.75 C 220.011719 103.636719 243.070312 103.058594 265.878906 101.570312 C 269.605469 101.414062 274.109375 100.835938 277.117188 103.171875 C 281.398438 106.859375 281.152344 113.152344 281.667969 118.332031 C 282.136719 126.023438 283.292969 133.691406 283.316406 141.40625 Z M 283.316406 141.40625 " fill-opacity="1" fill-rule="nonzero"/></g><path fill="#000000" d="M 272.035156 106.328125 C 268 103.75 262.492188 108.0625 263.695312 112.574219 C 264.542969 116.085938 269.269531 117.421875 272.167969 115.574219 C 275.511719 113.441406 275.558594 108.304688 272.035156 106.328125 Z M 270.851562 112.328125 C 269.070312 114.308594 265.433594 112.195312 267.464844 109.816406 C 269.15625 107.570312 272.746094 110.0625 270.851562 112.328125 Z M 270.851562 112.328125 " fill-opacity="1" fill-rule="nonzero"/><path fill="#000000" d="M 257.519531 107.351562 C 253.480469 104.769531 247.972656 109.082031 249.179688 113.597656 C 250.027344 117.109375 254.753906 118.441406 257.652344 116.597656 C 260.996094 114.484375 261.042969 109.351562 257.519531 107.351562 Z M 256.359375 113.351562 C 254.574219 115.332031 250.941406 113.21875 252.96875 110.839844 C 254.640625 108.59375 258.230469 111.105469 256.359375 113.351562 Z M 256.359375 113.351562 " fill-opacity="1" fill-rule="nonzero"/><path fill="#000000" d="M 272.589844 93.589844 C 273.4375 93.832031 274.464844 93.300781 274.644531 92.433594 C 274.730469 90.320312 275.734375 88.054688 275.199219 86.007812 C 274.53125 84.765625 272.457031 85.007812 272.144531 86.410156 C 272.257812 88.320312 270.160156 92.832031 272.589844 93.589844 Z M 272.589844 93.589844 " fill-opacity="1" fill-rule="nonzero"/><path fill="#000000" d="M 281.332031 95.835938 C 282.984375 93.988281 284.632812 92.144531 286.28125 90.300781 C 286.863281 89.65625 286.972656 88.566406 286.28125 87.941406 C 285.636719 87.363281 284.542969 87.253906 283.917969 87.941406 C 282.269531 89.789062 280.617188 91.632812 278.96875 93.476562 C 277.453125 95.011719 279.816406 97.390625 281.332031 95.835938 Z M 281.332031 95.835938 " fill-opacity="1" fill-rule="nonzero"/><g clip-path="url(#37f897cbf9)"><path fill="#000000" d="M 292.949219 98.324219 C 292.082031 95.699219 287.441406 98.347656 285.433594 98.414062 C 284.589844 98.613281 283.984375 99.636719 284.277344 100.457031 C 285.144531 103.082031 289.785156 100.4375 291.789062 100.371094 C 292.636719 100.167969 293.238281 99.148438 292.949219 98.324219 Z M 292.949219 98.324219 " fill-opacity="1" fill-rule="nonzero"/></g><g fill="#000000" fill-opacity="1"><g transform="translate(13.192316, 278.09496)"><g><path d="M 57.84375 -58.734375 C 57.84375 -53.597656 56.648438 -48.984375 54.265625 -44.890625 C 51.890625 -40.796875 48.726562 -37.1875 44.78125 -34.0625 C 45.96875 -32.269531 47.191406 -30.179688 48.453125 -27.796875 C 49.722656 -25.421875 50.859375 -22.910156 51.859375 -20.265625 C 52.867188 -17.617188 53.691406 -14.972656 54.328125 -12.328125 C 54.960938 -9.691406 55.28125 -7.257812 55.28125 -5.03125 C 55.28125 -2.644531 54.703125 -0.503906 53.546875 1.390625 C 52.390625 3.296875 50.4375 4.25 47.6875 4.25 C 45.375 4.25 43.378906 3.128906 41.703125 0.890625 C 40.023438 -1.335938 38.535156 -3.992188 37.234375 -7.078125 C 35.929688 -10.171875 34.738281 -13.316406 33.65625 -16.515625 C 32.582031 -19.722656 31.5625 -22.296875 30.59375 -24.234375 C 29.257812 -23.785156 27.957031 -23.28125 26.6875 -22.71875 C 25.425781 -22.164062 24.125 -21.628906 22.78125 -21.109375 C 22.707031 -19.460938 22.578125 -17.207031 22.390625 -14.34375 C 22.203125 -11.476562 21.789062 -8.628906 21.15625 -5.796875 C 20.53125 -2.972656 19.582031 -0.519531 18.3125 1.5625 C 17.050781 3.644531 15.300781 4.6875 13.0625 4.6875 C 10.601562 4.6875 8.703125 3.679688 7.359375 1.671875 C 6.023438 -0.335938 5.078125 -2.71875 4.515625 -5.46875 C 3.960938 -8.226562 3.648438 -11.039062 3.578125 -13.90625 C 3.503906 -16.769531 3.46875 -19.019531 3.46875 -20.65625 C 3.46875 -24.15625 3.539062 -27.597656 3.6875 -30.984375 C 3.832031 -34.367188 3.90625 -37.8125 3.90625 -41.3125 C 3.90625 -44.507812 3.847656 -47.707031 3.734375 -50.90625 C 3.628906 -54.113281 3.578125 -57.359375 3.578125 -60.640625 C 3.578125 -61.378906 3.578125 -62.328125 3.578125 -63.484375 C 3.578125 -64.640625 3.628906 -65.828125 3.734375 -67.046875 C 3.847656 -68.273438 3.976562 -69.445312 4.125 -70.5625 C 4.28125 -71.6875 4.539062 -72.582031 4.90625 -73.25 C 5.65625 -74.8125 7.347656 -76.300781 9.984375 -77.71875 C 12.628906 -79.132812 15.535156 -80.378906 18.703125 -81.453125 C 21.867188 -82.535156 24.957031 -83.390625 27.96875 -84.015625 C 30.988281 -84.648438 33.242188 -84.96875 34.734375 -84.96875 C 38.523438 -84.96875 41.867188 -84.257812 44.765625 -82.84375 C 47.671875 -81.4375 50.09375 -79.519531 52.03125 -77.09375 C 53.96875 -74.675781 55.421875 -71.882812 56.390625 -68.71875 C 57.359375 -65.5625 57.84375 -62.234375 57.84375 -58.734375 Z M 37.1875 -57.171875 C 37.1875 -59.109375 36.738281 -60.578125 35.84375 -61.578125 C 34.945312 -62.585938 33.492188 -63.09375 31.484375 -63.09375 C 29.992188 -63.09375 28.484375 -62.832031 26.953125 -62.3125 C 25.429688 -61.789062 24.039062 -61.191406 22.78125 -60.515625 C 23.070312 -54.640625 23.179688 -48.796875 23.109375 -42.984375 C 24.671875 -43.503906 26.269531 -44.175781 27.90625 -45 C 29.550781 -45.820312 31.0625 -46.828125 32.4375 -48.015625 C 33.8125 -49.203125 34.945312 -50.539062 35.84375 -52.03125 C 36.738281 -53.519531 37.1875 -55.234375 37.1875 -57.171875 Z M 37.1875 -57.171875 "/></g></g><g transform="translate(71.591452, 278.09496)"><g><path d="M 24.5625 3.234375 C 20.769531 3.234375 17.457031 2.226562 14.625 0.21875 C 11.800781 -1.789062 9.421875 -4.359375 7.484375 -7.484375 C 5.546875 -10.609375 4.09375 -14.085938 3.125 -17.921875 C 2.15625 -21.753906 1.671875 -25.53125 1.671875 -29.25 C 1.671875 -33.195312 2.15625 -37.273438 3.125 -41.484375 C 4.09375 -45.691406 5.582031 -49.523438 7.59375 -52.984375 C 9.601562 -56.441406 12.171875 -59.269531 15.296875 -61.46875 C 18.421875 -63.664062 22.144531 -64.765625 26.46875 -64.765625 C 30.632812 -64.765625 34.1875 -63.628906 37.125 -61.359375 C 40.0625 -59.085938 42.425781 -56.257812 44.21875 -52.875 C 46.007812 -49.488281 47.273438 -45.785156 48.015625 -41.765625 C 48.753906 -37.742188 49.015625 -33.945312 48.796875 -30.375 C 48.578125 -26.425781 47.960938 -22.441406 46.953125 -18.421875 C 45.953125 -14.398438 44.484375 -10.789062 42.546875 -7.59375 C 40.609375 -4.394531 38.148438 -1.789062 35.171875 0.21875 C 32.191406 2.226562 28.65625 3.234375 24.5625 3.234375 Z M 25.6875 -47.234375 C 24.5625 -47.234375 23.570312 -46.632812 22.71875 -45.4375 C 21.863281 -44.25 21.15625 -42.800781 20.59375 -41.09375 C 20.039062 -39.382812 19.613281 -37.578125 19.3125 -35.671875 C 19.019531 -33.773438 18.875 -32.117188 18.875 -30.703125 C 18.875 -28.921875 19.039062 -26.988281 19.375 -24.90625 C 19.707031 -22.820312 20.171875 -20.90625 20.765625 -19.15625 C 21.359375 -17.40625 22.082031 -15.953125 22.9375 -14.796875 C 23.800781 -13.640625 24.789062 -13.0625 25.90625 -13.0625 C 27.09375 -13.0625 28.113281 -13.617188 28.96875 -14.734375 C 29.832031 -15.859375 30.523438 -17.273438 31.046875 -18.984375 C 31.566406 -20.691406 31.9375 -22.566406 32.15625 -24.609375 C 32.382812 -26.660156 32.5 -28.582031 32.5 -30.375 C 32.5 -32.007812 32.347656 -33.8125 32.046875 -35.78125 C 31.742188 -37.757812 31.3125 -39.601562 30.75 -41.3125 C 30.195312 -43.03125 29.492188 -44.445312 28.640625 -45.5625 C 27.785156 -46.675781 26.800781 -47.234375 25.6875 -47.234375 Z M 25.6875 -47.234375 "/></g></g><g transform="translate(122.73257, 278.09496)"><g><path d="M 50.8125 -15.75 C 50.8125 -14.40625 50.753906 -12.65625 50.640625 -10.5 C 50.523438 -8.34375 50.207031 -6.238281 49.6875 -4.1875 C 49.164062 -2.132812 48.347656 -0.367188 47.234375 1.109375 C 46.117188 2.597656 44.554688 3.34375 42.546875 3.34375 C 39.785156 3.34375 37.660156 2.445312 36.171875 0.65625 C 34.691406 -1.125 33.988281 -3.351562 34.0625 -6.03125 C 31.675781 -3.945312 28.972656 -2.304688 25.953125 -1.109375 C 22.941406 0.078125 19.875 0.671875 16.75 0.671875 C 14.59375 0.671875 12.546875 0.148438 10.609375 -0.890625 C 8.671875 -1.929688 6.957031 -3.269531 5.46875 -4.90625 C 3.976562 -6.550781 2.785156 -8.394531 1.890625 -10.4375 C 1.003906 -12.488281 0.5625 -14.519531 0.5625 -16.53125 C 0.5625 -20.101562 1.65625 -23.226562 3.84375 -25.90625 C 6.039062 -28.582031 8.738281 -30.867188 11.9375 -32.765625 C 15.144531 -34.671875 18.550781 -36.179688 22.15625 -37.296875 C 25.769531 -38.410156 28.992188 -39.15625 31.828125 -39.53125 C 31.828125 -39.90625 31.84375 -40.238281 31.875 -40.53125 C 31.914062 -40.832031 31.9375 -41.164062 31.9375 -41.53125 C 31.9375 -43.84375 31.300781 -45.707031 30.03125 -47.125 C 28.769531 -48.539062 26.984375 -49.25 24.671875 -49.25 C 22.816406 -49.25 21.21875 -48.929688 19.875 -48.296875 C 18.53125 -47.660156 17.265625 -46.953125 16.078125 -46.171875 C 14.890625 -45.390625 13.695312 -44.679688 12.5 -44.046875 C 11.3125 -43.421875 9.972656 -43.109375 8.484375 -43.109375 C 6.847656 -43.109375 5.453125 -43.628906 4.296875 -44.671875 C 3.140625 -45.710938 2.5625 -47.050781 2.5625 -48.6875 C 2.5625 -51.144531 3.285156 -53.378906 4.734375 -55.390625 C 6.191406 -57.398438 8.019531 -59.09375 10.21875 -60.46875 C 12.414062 -61.84375 14.796875 -62.921875 17.359375 -63.703125 C 19.929688 -64.484375 22.296875 -64.875 24.453125 -64.875 C 26.460938 -64.875 28.472656 -64.628906 30.484375 -64.140625 C 32.492188 -63.660156 34.390625 -62.914062 36.171875 -61.90625 C 37.960938 -60.90625 39.582031 -59.679688 41.03125 -58.234375 C 42.488281 -56.785156 43.660156 -55.09375 44.546875 -53.15625 C 45.890625 -50.394531 46.96875 -47.46875 47.78125 -44.375 C 48.601562 -41.289062 49.238281 -38.128906 49.6875 -34.890625 C 50.132812 -31.648438 50.429688 -28.410156 50.578125 -25.171875 C 50.734375 -21.941406 50.8125 -18.800781 50.8125 -15.75 Z M 32.9375 -19.3125 L 32.609375 -26.90625 C 32.453125 -26.90625 32.300781 -26.921875 32.15625 -26.953125 C 32.007812 -26.992188 31.863281 -27.015625 31.71875 -27.015625 C 30.75 -27.015625 29.535156 -26.773438 28.078125 -26.296875 C 26.628906 -25.816406 25.234375 -25.144531 23.890625 -24.28125 C 22.554688 -23.425781 21.421875 -22.476562 20.484375 -21.4375 C 19.554688 -20.394531 19.09375 -19.316406 19.09375 -18.203125 C 19.09375 -17.160156 19.460938 -16.453125 20.203125 -16.078125 C 20.953125 -15.703125 21.8125 -15.515625 22.78125 -15.515625 C 24.414062 -15.515625 26.160156 -15.941406 28.015625 -16.796875 C 29.878906 -17.660156 31.519531 -18.5 32.9375 -19.3125 Z M 32.9375 -19.3125 "/></g></g><g transform="translate(176.888556, 278.09496)"><g><path d="M 51.484375 -73.46875 C 51.484375 -68.039062 51.273438 -62.644531 50.859375 -57.28125 C 50.453125 -51.925781 50.25 -46.53125 50.25 -41.09375 C 50.25 -36.695312 50.378906 -32.335938 50.640625 -28.015625 C 50.898438 -23.703125 51.03125 -19.351562 51.03125 -14.96875 C 51.03125 -13.769531 50.992188 -12.332031 50.921875 -10.65625 C 50.847656 -8.988281 50.601562 -7.375 50.1875 -5.8125 C 49.78125 -4.25 49.109375 -2.90625 48.171875 -1.78125 C 47.242188 -0.664062 45.925781 -0.109375 44.21875 -0.109375 C 41.988281 -0.109375 40.144531 -0.945312 38.6875 -2.625 C 37.238281 -4.300781 36.328125 -6.179688 35.953125 -8.265625 C 34.535156 -5.585938 32.488281 -3.316406 29.8125 -1.453125 C 27.132812 0.410156 24.234375 1.34375 21.109375 1.34375 C 17.753906 1.34375 14.867188 0.191406 12.453125 -2.109375 C 10.035156 -4.421875 8.023438 -7.210938 6.421875 -10.484375 C 4.816406 -13.765625 3.625 -17.191406 2.84375 -20.765625 C 2.0625 -24.335938 1.671875 -27.425781 1.671875 -30.03125 C 1.671875 -31.894531 1.78125 -34.015625 2 -36.390625 C 2.226562 -38.773438 2.617188 -41.195312 3.171875 -43.65625 C 3.734375 -46.113281 4.460938 -48.515625 5.359375 -50.859375 C 6.253906 -53.203125 7.390625 -55.304688 8.765625 -57.171875 C 10.140625 -59.035156 11.773438 -60.523438 13.671875 -61.640625 C 15.578125 -62.753906 17.757812 -63.3125 20.21875 -63.3125 C 22.894531 -63.3125 25.457031 -62.53125 27.90625 -60.96875 C 30.363281 -59.40625 32.226562 -57.46875 33.5 -55.15625 L 34.5 -72.921875 C 34.570312 -74.328125 34.679688 -75.976562 34.828125 -77.875 C 34.984375 -79.78125 35.300781 -81.585938 35.78125 -83.296875 C 36.269531 -85.015625 37.035156 -86.46875 38.078125 -87.65625 C 39.117188 -88.84375 40.644531 -89.4375 42.65625 -89.4375 C 44.8125 -89.4375 46.484375 -88.914062 47.671875 -87.875 C 48.867188 -86.832031 49.742188 -85.507812 50.296875 -83.90625 C 50.859375 -82.3125 51.195312 -80.582031 51.3125 -78.71875 C 51.425781 -76.863281 51.484375 -75.113281 51.484375 -73.46875 Z M 33.28125 -23.890625 C 33.28125 -25.609375 33.238281 -27.285156 33.15625 -28.921875 C 33.082031 -30.554688 33.085938 -32.234375 33.171875 -33.953125 C 32.722656 -34.910156 32.195312 -35.96875 31.59375 -37.125 C 31 -38.28125 30.273438 -39.359375 29.421875 -40.359375 C 28.566406 -41.367188 27.617188 -42.207031 26.578125 -42.875 C 25.535156 -43.550781 24.414062 -43.890625 23.21875 -43.890625 C 21.882812 -43.890625 20.804688 -43.476562 19.984375 -42.65625 C 19.171875 -41.832031 18.578125 -40.84375 18.203125 -39.6875 C 17.828125 -38.539062 17.582031 -37.296875 17.46875 -35.953125 C 17.363281 -34.617188 17.3125 -33.46875 17.3125 -32.5 C 17.3125 -31.601562 17.382812 -30.28125 17.53125 -28.53125 C 17.675781 -26.78125 17.953125 -25.007812 18.359375 -23.21875 C 18.773438 -21.4375 19.351562 -19.875 20.09375 -18.53125 C 20.84375 -17.195312 21.847656 -16.53125 23.109375 -16.53125 C 24.078125 -16.53125 25.046875 -16.734375 26.015625 -17.140625 C 26.984375 -17.546875 27.894531 -18.066406 28.75 -18.703125 C 29.601562 -19.335938 30.421875 -20.046875 31.203125 -20.828125 C 31.984375 -21.609375 32.675781 -22.332031 33.28125 -23 Z M 33.28125 -23.890625 "/></g></g><g transform="translate(232.384484, 278.09496)"><g><path d="M 55.15625 -59.859375 C 55.15625 -55.835938 54.28125 -51.890625 52.53125 -48.015625 C 50.78125 -44.140625 48.453125 -40.65625 45.546875 -37.5625 C 42.648438 -34.476562 39.335938 -31.945312 35.609375 -29.96875 C 31.890625 -28 28.0625 -26.90625 24.125 -26.6875 C 24.039062 -25.34375 23.976562 -23.644531 23.9375 -21.59375 C 23.90625 -19.550781 23.773438 -17.414062 23.546875 -15.1875 C 23.328125 -12.957031 23.015625 -10.722656 22.609375 -8.484375 C 22.203125 -6.253906 21.609375 -4.242188 20.828125 -2.453125 C 20.046875 -0.671875 19.039062 0.773438 17.8125 1.890625 C 16.582031 3.015625 15.070312 3.578125 13.28125 3.578125 C 11.195312 3.578125 9.539062 2.882812 8.3125 1.5 C 7.082031 0.125 6.148438 -1.523438 5.515625 -3.453125 C 4.890625 -5.390625 4.460938 -7.421875 4.234375 -9.546875 C 4.015625 -11.671875 3.867188 -13.476562 3.796875 -14.96875 C 3.648438 -17.125 3.554688 -19.242188 3.515625 -21.328125 C 3.484375 -23.410156 3.46875 -25.53125 3.46875 -27.6875 C 3.46875 -28.65625 3.46875 -30.460938 3.46875 -33.109375 C 3.46875 -35.753906 3.484375 -38.769531 3.515625 -42.15625 C 3.554688 -45.539062 3.613281 -49.070312 3.6875 -52.75 C 3.757812 -56.4375 3.867188 -59.863281 4.015625 -63.03125 C 4.171875 -66.195312 4.335938 -68.894531 4.515625 -71.125 C 4.703125 -73.363281 4.945312 -74.664062 5.25 -75.03125 C 5.320312 -75.113281 5.539062 -75.285156 5.90625 -75.546875 C 6.28125 -75.804688 6.691406 -76.066406 7.140625 -76.328125 C 7.585938 -76.585938 8 -76.828125 8.375 -77.046875 C 8.75 -77.273438 9.007812 -77.425781 9.15625 -77.5 C 12.582031 -79.425781 16.34375 -81.097656 20.4375 -82.515625 C 24.53125 -83.929688 28.585938 -84.640625 32.609375 -84.640625 C 36.035156 -84.640625 39.140625 -83.953125 41.921875 -82.578125 C 44.710938 -81.203125 47.09375 -79.378906 49.0625 -77.109375 C 51.039062 -74.835938 52.550781 -72.191406 53.59375 -69.171875 C 54.632812 -66.160156 55.15625 -63.054688 55.15625 -59.859375 Z M 35.84375 -57.28125 C 35.84375 -58.769531 35.488281 -60.070312 34.78125 -61.1875 C 34.070312 -62.300781 32.898438 -62.859375 31.265625 -62.859375 C 29.847656 -62.859375 28.429688 -62.578125 27.015625 -62.015625 C 25.609375 -61.460938 24.304688 -60.890625 23.109375 -60.296875 C 23.335938 -57.691406 23.539062 -55.160156 23.71875 -52.703125 C 23.90625 -50.242188 23.925781 -47.710938 23.78125 -45.109375 C 24.976562 -45.703125 26.28125 -46.390625 27.6875 -47.171875 C 29.101562 -47.953125 30.40625 -48.828125 31.59375 -49.796875 C 32.789062 -50.765625 33.796875 -51.863281 34.609375 -53.09375 C 35.429688 -54.320312 35.84375 -55.71875 35.84375 -57.28125 Z M 35.84375 -57.28125 "/></g></g><g transform="translate(286.875456, 278.09496)"><g><path d="M 21.78125 -77.9375 C 21.78125 -76.894531 21.5 -75.960938 20.9375 -75.140625 C 20.375 -74.328125 19.644531 -73.601562 18.75 -72.96875 C 17.863281 -72.332031 16.898438 -71.847656 15.859375 -71.515625 C 14.816406 -71.179688 13.847656 -71.015625 12.953125 -71.015625 C 11.460938 -71.015625 10.160156 -71.382812 9.046875 -72.125 C 7.929688 -72.875 7.375 -74.03125 7.375 -75.59375 C 7.375 -76.707031 7.648438 -77.691406 8.203125 -78.546875 C 8.765625 -79.410156 9.453125 -80.117188 10.265625 -80.671875 C 11.085938 -81.234375 12.019531 -81.660156 13.0625 -81.953125 C 14.101562 -82.253906 15.109375 -82.40625 16.078125 -82.40625 C 17.492188 -82.40625 18.796875 -82.066406 19.984375 -81.390625 C 21.179688 -80.722656 21.78125 -79.570312 21.78125 -77.9375 Z M 22.671875 -39.96875 C 22.671875 -38.925781 22.671875 -37.828125 22.671875 -36.671875 C 22.671875 -35.523438 22.632812 -34.429688 22.5625 -33.390625 C 22.476562 -32.117188 22.4375 -30.421875 22.4375 -28.296875 C 22.4375 -26.179688 22.363281 -23.894531 22.21875 -21.4375 C 22.070312 -18.976562 21.832031 -16.484375 21.5 -13.953125 C 21.164062 -11.421875 20.625 -9.113281 19.875 -7.03125 C 19.132812 -4.945312 18.148438 -3.253906 16.921875 -1.953125 C 15.691406 -0.648438 14.144531 0.0351562 12.28125 0.109375 C 10.863281 0.179688 9.671875 -0.375 8.703125 -1.5625 C 7.742188 -2.75 6.945312 -4.289062 6.3125 -6.1875 C 5.675781 -8.09375 5.207031 -10.21875 4.90625 -12.5625 C 4.613281 -14.90625 4.390625 -17.175781 4.234375 -19.375 C 4.085938 -21.570312 4.015625 -23.597656 4.015625 -25.453125 C 4.015625 -27.316406 4.015625 -28.695312 4.015625 -29.59375 C 4.015625 -30.78125 4.015625 -32.472656 4.015625 -34.671875 C 4.015625 -36.867188 4.085938 -39.234375 4.234375 -41.765625 C 4.390625 -44.296875 4.671875 -46.863281 5.078125 -49.46875 C 5.484375 -52.070312 6.078125 -54.453125 6.859375 -56.609375 C 7.648438 -58.773438 8.675781 -60.523438 9.9375 -61.859375 C 11.207031 -63.203125 12.804688 -63.875 14.734375 -63.875 C 16.742188 -63.875 18.269531 -62.867188 19.3125 -60.859375 C 20.351562 -58.847656 21.132812 -56.5 21.65625 -53.8125 C 22.175781 -51.132812 22.472656 -48.472656 22.546875 -45.828125 C 22.628906 -43.191406 22.671875 -41.238281 22.671875 -39.96875 Z M 22.671875 -39.96875 "/></g></g><g transform="translate(314.120942, 278.09496)"><g><path d="M 44.78125 -42.875 C 44.78125 -42.507812 44.738281 -42.117188 44.65625 -41.703125 C 44.582031 -41.296875 44.472656 -40.90625 44.328125 -40.53125 C 43.660156 -38.820312 42.617188 -37.390625 41.203125 -36.234375 C 39.785156 -35.078125 38.109375 -34.5 36.171875 -34.5 C 33.273438 -34.5 31.304688 -35.953125 30.265625 -38.859375 C 30.109375 -39.234375 30.03125 -39.660156 30.03125 -40.140625 C 30.03125 -40.628906 29.992188 -41.132812 29.921875 -41.65625 L 29.921875 -44.890625 C 29.773438 -45.929688 29.515625 -46.75 29.140625 -47.34375 C 28.773438 -47.9375 28.144531 -48.234375 27.25 -48.234375 C 25.976562 -48.234375 24.765625 -47.429688 23.609375 -45.828125 C 22.460938 -44.234375 21.457031 -42.335938 20.59375 -40.140625 C 19.738281 -37.941406 19.050781 -35.6875 18.53125 -33.375 C 18.007812 -31.070312 17.75 -29.210938 17.75 -27.796875 C 17.75 -26.679688 17.820312 -25.320312 17.96875 -23.71875 C 18.125 -22.125 18.425781 -20.582031 18.875 -19.09375 C 19.320312 -17.601562 19.9375 -16.316406 20.71875 -15.234375 C 21.5 -14.160156 22.519531 -13.625 23.78125 -13.625 C 25.050781 -13.625 26.222656 -14.015625 27.296875 -14.796875 C 28.378906 -15.578125 29.441406 -16.488281 30.484375 -17.53125 C 31.453125 -18.425781 32.507812 -19.359375 33.65625 -20.328125 C 34.8125 -21.296875 36.132812 -21.78125 37.625 -21.78125 C 39.488281 -21.78125 40.957031 -21.109375 42.03125 -19.765625 C 43.113281 -18.421875 43.65625 -16.894531 43.65625 -15.1875 C 43.65625 -12.65625 42.984375 -10.289062 41.640625 -8.09375 C 40.304688 -5.894531 38.632812 -3.992188 36.625 -2.390625 C 34.613281 -0.796875 32.378906 0.460938 29.921875 1.390625 C 27.460938 2.328125 25.117188 2.796875 22.890625 2.796875 C 18.867188 2.796875 15.460938 1.789062 12.671875 -0.21875 C 9.878906 -2.226562 7.625 -4.773438 5.90625 -7.859375 C 4.195312 -10.953125 2.96875 -14.320312 2.21875 -17.96875 C 1.476562 -21.625 1.109375 -25.085938 1.109375 -28.359375 C 1.109375 -32.160156 1.628906 -36.273438 2.671875 -40.703125 C 3.722656 -45.128906 5.328125 -49.238281 7.484375 -53.03125 C 9.640625 -56.832031 12.410156 -60 15.796875 -62.53125 C 19.179688 -65.0625 23.222656 -66.328125 27.921875 -66.328125 C 30.816406 -66.328125 33.328125 -65.691406 35.453125 -64.421875 C 37.578125 -63.160156 39.328125 -61.503906 40.703125 -59.453125 C 42.078125 -57.410156 43.117188 -55.125 43.828125 -52.59375 C 44.535156 -50.0625 44.890625 -47.566406 44.890625 -45.109375 C 44.890625 -44.734375 44.890625 -44.359375 44.890625 -43.984375 C 44.890625 -43.617188 44.851562 -43.25 44.78125 -42.875 Z M 44.78125 -42.875 "/></g></g></g></svg>